<svg version="1.1"
    baseProfile="full"
    xmlns="http://www.w3.org/2000/svg">

    <symbol id="question" viewBox="0 0 320 512">
        <path
            d="M80 160c0-35.3 28.7-64 64-64l32 0c35.3 0 64 28.7 64 64l0 3.6c0 21.8-11.1 42.1-29.4 53.8l-42.2 27.1c-25.2 16.2-40.4 44.1-40.4 74l0 1.4c0 17.7 14.3 32 32 32s32-14.3 32-32l0-1.4c0-8.2 4.2-15.8 11-20.2l42.2-27.1c36.6-23.6 58.8-64.1 58.8-107.7l0-3.6c0-70.7-57.3-128-128-128l-32 0C73.3 32 16 89.3 16 160c0 17.7 14.3 32 32 32s32-14.3 32-32zm80 320a40 40 0 1 0 0-80 40 40 0 1 0 0 80z" />
    </symbol>
    <symbol id="people-arrow" viewBox="0 0 640 512">
        <path
            d="M64 64a64 64 0 1 1 128 0A64 64 0 1 1 64 64zM25.9 233.4C29.3 191.9 64 160 105.6 160l44.8 0c27 0 51 13.4 65.5 34.1c-2.7 1.9-5.2 4-7.5 6.3l-64 64c-21.9 21.9-21.9 57.3 0 79.2L192 391.2l0 72.8c0 26.5-21.5 48-48 48l-32 0c-26.5 0-48-21.5-48-48l0-115.7c-26.5-9.5-44.7-35.8-42.2-65.6l4.1-49.3zM448 64a64 64 0 1 1 128 0A64 64 0 1 1 448 64zM431.6 200.4c-2.3-2.3-4.9-4.4-7.5-6.3c14.5-20.7 38.6-34.1 65.5-34.1l44.8 0c41.6 0 76.3 31.9 79.7 73.4l4.1 49.3c2.5 29.8-15.7 56.1-42.2 65.6L576 464c0 26.5-21.5 48-48 48l-32 0c-26.5 0-48-21.5-48-48l0-72.8 47.6-47.6c21.9-21.9 21.9-57.3 0-79.2l-64-64zM272 240l0 32 96 0 0-32c0-9.7 5.8-18.5 14.8-22.2s19.3-1.7 26.2 5.2l64 64c9.4 9.4 9.4 24.6 0 33.9l-64 64c-6.9 6.9-17.2 8.9-26.2 5.2s-14.8-12.5-14.8-22.2l0-32-96 0 0 32c0 9.7-5.8 18.5-14.8 22.2s-19.3 1.7-26.2-5.2l-64-64c-9.4-9.4-9.4-24.6 0-33.9l64-64c6.9-6.9 17.2-8.9 26.2-5.2s14.8 12.5 14.8 22.2z" />
    </symbol>
    <symbol id="hand" viewBox="0 0 512 512">
        <path
            d="M288 32c0-17.7-14.3-32-32-32s-32 14.3-32 32l0 208c0 8.8-7.2 16-16 16s-16-7.2-16-16l0-176c0-17.7-14.3-32-32-32s-32 14.3-32 32l0 272c0 1.5 0 3.1 .1 4.6L67.6 283c-16-15.2-41.3-14.6-56.6 1.4s-14.6 41.3 1.4 56.6L124.8 448c43.1 41.1 100.4 64 160 64l19.2 0c97.2 0 176-78.8 176-176l0-208c0-17.7-14.3-32-32-32s-32 14.3-32 32l0 112c0 8.8-7.2 16-16 16s-16-7.2-16-16l0-176c0-17.7-14.3-32-32-32s-32 14.3-32 32l0 176c0 8.8-7.2 16-16 16s-16-7.2-16-16l0-208z" />
    </symbol>
    <symbol id="list" viewBox="0 0 16 16">
        <path fill-rule="evenodd"
            d="M2.5 12a.5.5 0 0 1 .5-.5h10a.5.5 0 0 1 0 1H3a.5.5 0 0 1-.5-.5zm0-4a.5.5 0 0 1 .5-.5h10a.5.5 0 0 1 0 1H3a.5.5 0 0 1-.5-.5zm0-4a.5.5 0 0 1 .5-.5h10a.5.5 0 0 1 0 1H3a.5.5 0 0 1-.5-.5z">
        </path>
    </symbol>
    <symbol id="instagram" viewBox="0 0 16 16">
        <path
            d="M8 0C5.829 0 5.556.01 4.703.048 3.85.088 3.269.222 2.76.42a3.917 3.917 0 0 0-1.417.923A3.927 3.927 0 0 0 .42 2.76C.222 3.268.087 3.85.048 4.7.01 5.555 0 5.827 0 8.001c0 2.172.01 2.444.048 3.297.04.852.174 1.433.372 1.942.205.526.478.972.923 1.417.444.445.89.719 1.416.923.51.198 1.09.333 1.942.372C5.555 15.99 5.827 16 8 16s2.444-.01 3.298-.048c.851-.04 1.434-.174 1.943-.372a3.916 3.916 0 0 0 1.416-.923c.445-.445.718-.891.923-1.417.197-.509.332-1.09.372-1.942C15.99 10.445 16 10.173 16 8s-.01-2.445-.048-3.299c-.04-.851-.175-1.433-.372-1.941a3.926 3.926 0 0 0-.923-1.417A3.911 3.911 0 0 0 13.24.42c-.51-.198-1.092-.333-1.943-.372C10.443.01 10.172 0 7.998 0h.003zm-.717 1.442h.718c2.136 0 2.389.007 3.232.046.78.035 1.204.166 1.486.275.373.145.64.319.92.599.28.28.453.546.598.92.11.281.24.705.275 1.485.039.843.047 1.096.047 3.231s-.008 2.389-.047 3.232c-.035.78-.166 1.203-.275 1.485a2.47 2.47 0 0 1-.599.919c-.28.28-.546.453-.92.598-.28.11-.704.24-1.485.276-.843.038-1.096.047-3.232.047s-2.39-.009-3.233-.047c-.78-.036-1.203-.166-1.485-.276a2.478 2.478 0 0 1-.92-.598 2.48 2.48 0 0 1-.6-.92c-.109-.281-.24-.705-.275-1.485-.038-.843-.046-1.096-.046-3.233 0-2.136.008-2.388.046-3.231.036-.78.166-1.204.276-1.486.145-.373.319-.64.599-.92.28-.28.546-.453.92-.598.282-.11.705-.24 1.485-.276.738-.034 1.024-.044 2.515-.045v.002zm4.988 1.328a.96.96 0 1 0 0 1.92.96.96 0 0 0 0-1.92zm-4.27 1.122a4.109 4.109 0 1 0 0 8.217 4.109 4.109 0 0 0 0-8.217zm0 1.441a2.667 2.667 0 1 1 0 5.334 2.667 2.667 0 0 1 0-5.334z">
        </path>
    </symbol>

</svg>